<svg width="185" height="228" viewBox="0 0 185 228" fill="none" xmlns="http://www.w3.org/2000/svg">
<path fill-rule="evenodd" clip-rule="evenodd" d="M63.231 0.238482C57.7563 0.752635 51.623 2.05954 51.1593 2.80986C50.9772 3.10445 52.5812 5.21025 54.7232 7.4895C60.1837 13.2989 63.7427 18.5905 62.6455 19.2683C60.6935 20.4749 52.4698 21.1453 47.4306 20.5088C38.8114 19.4202 33.8577 17.0696 29.1529 11.837C27.5822 10.0898 26.1253 8.83269 25.9144 9.04303C25.1506 9.80687 26.9248 22.8433 28.4414 27.6153C31.6381 37.6695 39.1017 47.7859 45.5973 50.8684C46.8396 51.4582 47.8562 52.1494 47.8562 52.4053C47.8562 52.6611 45.8494 53.5135 43.3974 54.2995C40.9455 55.0855 37.0433 56.679 34.7266 57.8414C30.608 59.9072 30.5391 59.981 31.6123 61.1674C32.6775 62.3439 32.6437 62.4349 30.4887 64.2117C27.2637 66.8698 21.4077 74.635 13.1182 87.2459C9.11641 93.3345 4.50148 99.9318 2.86375 101.906C-0.433241 105.882 -0.703222 106.619 1.13561 106.619C3.01504 106.619 3.16693 107.88 1.964 113.495C0.502159 120.316 0.532917 135.25 2.02612 143.827C3.14603 150.263 5.76958 160.085 6.59122 160.919C6.85505 161.186 7.56048 159.595 8.15948 157.383C9.25048 153.352 10.3415 152.075 10.3415 154.829C10.3415 157.059 13.2473 166.618 15.521 171.866C19.1617 180.273 26.1063 189.039 33.3792 194.41C36.5526 196.754 37.1374 196.989 37.7389 196.166C38.3453 195.337 38.6349 195.43 40.0015 196.89C42.0027 199.027 49.9361 210.334 55.7219 219.296C62.525 229.832 61.5244 229.108 64.8466 225.902C73.5537 217.498 80.1501 204.457 82.9115 190.187L83.58 186.729L89.8566 186.42C93.3086 186.25 96.9309 185.792 97.9057 185.403C99.6357 184.712 99.651 184.665 98.5607 183.459C97.4801 182.265 97.4807 182.118 98.5889 179.037C99.2193 177.283 100.032 174.209 100.394 172.205L101.053 168.561L103.98 167.82C106.902 167.079 106.917 167.083 114.127 170.7C122.863 175.083 128.306 176.402 135.493 175.876C143.909 175.261 149.829 171.43 152.862 164.638C153.672 162.824 153.911 160.569 153.897 154.898C153.881 148.482 153.653 146.835 152.147 142.29C149.76 135.086 147.051 129.931 142.609 124.147L138.832 119.227L141.16 118.716C148.894 117.019 167.358 121.288 179.311 127.537L185 130.512L184.991 119.949C184.98 107.497 184.269 103.742 180.559 96.5412C174.156 84.1136 161.4 76.3872 147.028 76.231C144.24 76.2002 141.957 76.0889 141.955 75.9825C141.952 75.8767 143.119 72.4173 144.546 68.2948C147.073 60.9995 147.143 60.5881 147.16 52.805C147.178 44.8818 147.158 44.7686 144.972 40.1972C142.324 34.6621 138.202 30.2278 133.813 28.1946L130.612 26.7118L129.806 21.9227C128.278 12.8414 123.44 5.47717 116.902 2.27786C114.062 0.88854 112.377 0.529373 107.744 0.327033L102.065 0.0785722L103.558 4.91628C105.624 11.615 105.661 11.4896 101.822 10.9711C97.3657 10.3702 93.6425 8.86776 89.3013 5.91938C87.2706 4.54051 84.6562 3.01466 83.4914 2.5288C78.4085 0.408226 70.6971 -0.46325 63.231 0.238482ZM78.4269 7.29762C80.0751 7.78718 84.318 10.048 87.856 12.3217C100.465 20.4251 111.659 22.3052 113.63 16.6502C114.568 13.9601 114.448 13.0289 112.755 9.84562C111.079 6.69243 111.587 6.18998 114.768 7.85667C121.352 11.3063 124.651 20.2874 123.896 32.7119C123.676 36.3214 123.338 39.9814 123.143 40.8448C122.86 42.1001 123.093 42.5546 124.306 43.1069C125.778 43.7778 125.852 43.6942 126.814 40.2661C127.36 38.3233 127.805 35.8528 127.805 34.7753C127.805 32.1842 129.197 32.1953 133.113 34.8159C136.247 36.9131 139.624 41.7508 140.728 45.7238C141.687 49.1728 141.436 54.326 140.043 59.8359C138.011 67.8705 136.678 70.4055 135.493 68.4879C134.687 67.1841 134.005 68.0279 132.382 72.3318C131.457 74.7844 130.604 76.9038 130.488 77.0422C130.371 77.1799 126.042 73.0255 120.869 67.8102C111.673 58.5388 111.444 58.2442 110.651 54.6433C109.137 47.7712 104.634 40.3288 99.9886 37.0213C97.9223 35.5496 98.0471 35.894 101.152 40.2384C103.399 43.3824 107.834 52.3788 107.367 52.8456C107.201 53.0117 105.16 52.4668 102.829 51.6347C97.7642 49.8259 93.1419 48.6186 85.0541 46.9913C78.0069 45.5737 71.9541 42.8652 65.7531 38.3546C63.3171 36.5834 61.2132 35.2445 61.0779 35.3804C60.2108 36.2476 70.384 44.7588 74.6084 46.7016C76.5469 47.5928 66.1824 47.7859 60.771 46.9593C47.2768 44.8978 41.6785 41.0546 36.0993 30.0224C34.3189 26.5015 33.0176 23.4657 33.207 23.2763C33.3964 23.0869 35.7321 23.6933 38.3975 24.6238C42.7585 26.1466 44.0438 26.312 51.2386 26.2776C58.0718 26.2456 60.0238 26.0008 64.6726 24.5943C67.6639 23.689 70.9498 22.5149 71.975 21.9848L73.8385 21.0211L71.0802 18.1551C69.563 16.5788 66.8792 13.353 65.116 10.9859C61.9752 6.76993 61.9389 6.674 63.3393 6.24226C65.4253 5.59833 74.9479 6.2644 78.4269 7.29762ZM89.0608 55.9053C95.9561 57.4152 105.865 60.9171 106.769 62.1631C109.099 65.3753 112.464 71.1552 112.297 71.6577C112.191 71.9757 110.932 71.2321 109.5 70.0064C107.161 68.0045 106.896 67.908 106.896 69.0605C106.896 69.7665 108.003 72.9351 109.356 76.1024C110.709 79.2691 111.816 82.0662 111.816 82.3172C111.816 83.7175 105.986 78.7624 102.42 74.3306L99.9456 71.2555L100.287 73.8693C100.475 75.3066 100.498 76.4831 100.339 76.4831C100.179 76.4831 99.1676 75.822 98.0908 75.0145C92.7741 71.0255 83.6317 67.8661 77.4651 67.8864L73.3784 67.9L76.1459 69.1546C78.8507 70.381 81.6809 72.5735 81.6809 73.4431C81.6809 73.683 80.5044 73.4597 79.0671 72.9468C75.7517 71.7641 67.9776 71.2869 64.7685 72.0698C62.5072 72.6208 62.4574 72.6749 64.1535 72.7346C65.1683 72.7703 66.9769 73.0716 68.1725 73.4037C70.5704 74.0704 76.1459 77.4044 76.1459 78.1726C76.1459 79.0551 67.2777 82.0404 64.7685 82.0017C63.4155 81.9814 61.271 81.5939 60.0023 81.1413C57.2188 80.148 57.0048 80.8018 59.0921 83.926C61.0976 86.9279 63.9666 88.1666 68.9197 88.1672C72.1755 88.1684 73.0709 88.3646 73.0709 89.0792C73.0709 89.5799 72.3102 90.158 71.3797 90.364C62.4069 92.3468 56.9101 96.6083 55.2429 102.873C53.8831 107.981 56.0608 113.415 60.6973 116.486C62.2071 117.486 63.8098 118.304 64.2587 118.304C64.7083 118.304 65.076 118.61 65.076 118.985C65.076 121.002 60.7649 128.099 55.5897 134.602C48.2381 143.839 29.993 162.296 29.2969 161.199C28.1185 159.343 28.95 140.13 30.418 135.294C30.6597 134.499 30.5391 134.282 30.0305 134.597C28.7028 135.417 24.6032 144.699 23.4981 149.387C22.9034 151.91 22.2281 153.975 21.9981 153.975C21.7674 153.975 20.845 152.338 19.9471 150.338C15.4053 140.217 16.4964 119.363 22.9753 92.4735C23.3382 90.968 23.3123 90.9741 21.7361 92.781C18.6574 96.3094 14.6292 102.404 14.9902 102.987C15.1895 103.31 15.0369 103.498 14.6501 103.405C14.2639 103.313 12.8494 105.035 11.5075 107.234C10.165 109.433 8.80767 111.321 8.49157 111.431C7.58814 111.744 10.053 105.167 13.1126 99.1003C16.1335 93.1107 24.0596 80.9186 28.8867 74.8361C34.2426 68.0863 40.8833 62.3778 46.3943 59.783C50.786 57.7159 57.8566 55.6341 63.5385 54.7362C67.3884 54.1273 84.5289 54.9127 89.0608 55.9053ZM156.991 83.8116C167.676 87.6124 176.229 97.2694 178.222 107.782C178.885 111.275 179.085 118.919 178.514 118.919C178.329 118.919 176.046 117.69 173.44 116.189C163.661 110.554 151.971 108.047 140.73 109.175C134.813 109.768 130.39 110.963 117.474 115.458C112.975 117.023 108.409 118.302 107.326 118.298C104.431 118.289 99.2888 115.664 97.5299 113.297C94.6849 109.468 93.9758 105.534 95.2735 100.776C96.2562 97.1716 101.537 92.2189 105.723 90.976C109.51 89.8511 115.708 89.7189 118.53 90.7029C120.325 91.3284 120.76 91.2121 123.221 89.444C124.713 88.3726 127.163 86.9519 128.666 86.2877C130.168 85.6229 131.503 84.7612 131.633 84.3732C132.005 83.2575 141.082 82.0699 147.485 82.2993C151.421 82.4402 154.523 82.9334 156.991 83.8116ZM88.4009 84.8689C91.2176 88.4495 88.7527 93.7134 84.2657 93.7005C83.6895 93.6986 82.4293 93.0664 81.4656 92.2946C77.7351 89.3093 79.9816 83.2483 84.8186 83.2483C86.5793 83.2483 87.4286 83.6327 88.4009 84.8689ZM135.399 91.888C131.55 92.5658 126.013 94.5836 124.386 95.9004C123.259 96.8131 123.312 96.8469 125.333 96.5025C130.1 95.6907 141.902 95.4453 146.255 96.0677C151.689 96.845 157.17 98.516 161.528 100.725C165.36 102.666 166.529 102.763 164.954 101.009C162.64 98.4312 156.395 94.7029 152.134 93.3554C147.013 91.7355 139.837 91.1063 135.399 91.888ZM76.82 96.604C77.8021 97.1839 78.6059 97.8383 78.6059 98.0578C78.6059 98.2768 77.291 98.9539 75.6847 99.5622C72.3127 100.838 69.996 102.228 69.996 102.975C69.996 103.881 74.713 104.948 76.9012 104.538C78.0586 104.321 79.5961 103.594 80.3174 102.921C81.9146 101.433 87.0559 101.182 87.5873 102.566C88.3511 104.556 84.0388 110.324 80.398 112.181C77.101 113.863 69.6454 113.858 66.3398 112.171C63.1787 110.559 61.386 108.174 61.386 105.583C61.386 101.217 63.8626 98.6612 69.9935 96.6981C74.2732 95.3284 74.6521 95.3229 76.82 96.604ZM104.088 105.639C103.364 108.521 106.437 111.351 108.463 109.669C109.824 108.54 109.533 106.848 107.735 105.434C105.612 103.763 104.543 103.823 104.088 105.639ZM90.2908 114.908C90.2908 116.406 96.367 122.446 98.8872 123.455C101.958 124.684 102.258 125.709 102.239 134.91C102.224 142.423 101.286 147.226 98.8017 152.51C96.9875 156.37 92.7852 160.74 90.888 160.74C88.6463 160.74 90.3547 162.075 93.1806 162.531C95.5078 162.907 95.5189 162.923 95.7034 166.102C95.9359 170.12 94.9734 173.763 93.1038 175.937C91.8098 177.441 91.1598 177.648 87.0726 177.854C83.2811 178.045 82.0388 177.854 79.8679 176.747C74.5592 174.039 70.8114 168.499 71.4763 164.343C71.8286 162.137 71.7093 161.901 69.5402 160.507C66.6522 158.652 65.7211 157.524 63.9291 153.709C63.0305 151.795 62.3762 148.984 62.1579 146.092C61.8725 142.327 61.6087 141.457 60.6763 141.213C59.1893 140.824 59.244 140.283 60.9808 138.186C64.8725 133.485 69.381 124.826 69.381 122.05C69.381 121.075 70.039 120.884 74.2327 120.641C79.7301 120.323 84.492 118.393 87.4821 115.271C89.2367 113.441 90.2908 113.304 90.2908 114.908ZM133.391 122.761C138.77 128.275 142.157 133.299 144.631 139.433C147.536 146.641 148.284 150.342 148.017 156.204C147.737 162.371 146.018 165.383 141.53 167.569C137.101 169.727 129.9 169.643 125.598 167.384C122.136 165.565 119.229 162.578 117.363 158.92C115.626 155.515 115.054 155.425 114.194 158.416C113.205 161.86 113.153 161.898 111.834 160.149L110.706 158.655L107.282 159.818C105.399 160.458 103.72 160.845 103.553 160.677C103.386 160.51 103.921 158.709 104.742 156.675C107.781 149.15 108.321 146.139 108.531 135.525L108.731 125.377L114.117 123.655C126.059 119.836 128.748 118.998 129.186 118.96C129.438 118.938 131.331 120.648 133.391 122.761Z" fill="#000"/>
</svg>
